<svg xmlns="http://www.w3.org/2000/svg" width="1924" height="169" fill="none"><g clip-path="url(#a)"><path fill="#007688" d="M1655.89 62.22v3.72h2.55v3.04h1.76v-3.04h11.42v3.04h1.76v-3.04h3.21v-3.72h1.1l1.49-1.49v-4.22h-.23V28.54h-.7v1.17l-.97.53v-1.7h-.7V46.5h-.41c-.95-3.95-4.21-7.02-8.28-7.68v-.86s.04-.07.07-.08c.29-.06.28-.42 0-.48-.04 0-.07-.04-.07-.08v-.84c0-.06.03-.11.07-.15.5-.45.82-1.11.82-1.84 0-1.36-1.11-2.47-2.47-2.47s-2.47 1.11-2.47 2.47c0 .73.32 1.38.82 1.84.04.04.07.09.07.15v.84s-.03.07-.07.08c-.28.06-.29.42 0 .48.04 0 .07.04.07.08v.84c-4.13.61-7.45 3.7-8.41 7.7h-1.61v.9h.64v.88h.54v8.22h-2.46v4.22l1.49 1.49h.97v.01Zm22.95-4.88v3.24l-1.28 1.28h-.6l1.13-1.13v-3.86h.16v.47h.59Zm-1.18-.83.6-.33v.33h-.6Zm-.37-25.47.97-.53v1.02l-.97.53v-1.02Zm0 1.82.97-.53v1.02l-.97.53v-1.02Zm0 1.82.97-.53v1.2l-.97.53v-1.2Zm0 2 .97-.53v1.2l-.97.53v-1.2Zm0 2 .97-.53v1.2l-.97.53v-1.2Zm0 2 .97-.53v1.2l-.97.53v-1.2Zm0 2 .97-.53v1.2l-.97.53v-1.2Zm0 2 .97-.53v1.2l-.97.53v-1.2Zm0 2.71h.63v-.9h-.27l.62-.33v1.2l-.97.53v-.5h-.01Zm0 1.29.97-.53v1.2l-.97.53v-1.2Zm0 2 .97-.53v1.2l-.97.53v-1.2Zm0 2 .97-.53v1.2l-.97.53v-1.2Zm0 2 .97-.53v1.2l-.97.53v-1.2Zm-.69 2.63h.69v-.47h.45v3.71l-1.14 1.14v-4.38Zm-6.15 4.52h-2.95c.04-.15.06-.27.09-.38.93-.35 1.75-.96 2.4-1.75l-2.24-2.24v-.51l2.47 2.47c.08-.11.16-.23.24-.35v2.76h-.01Zm3.52 0h-2.11c.07-.15.13-.26.19-.38.09-.17.18-.34.31-.64v-.07l.01-3.9h1.6v4.99Zm2.35 0h-1.38c.22-.3.36-.49.63-.85l.14-.18v-3.96h.61v4.99Zm-1.99-13.19h1.99v7.85h-1.99v-7.85Zm0 8.2h1.02v3.84l-.06.08c-.33.44-.47.63-.79 1.07h-.17v-4.99Zm-3.52-1.81h.75c-.03-1.11-.3-2.15-.75-3.05v-3.33h3.16v7.85h-2.52c.06-.36.1-.72.11-1.1h-.75v-.37Zm0 3.41c.25-.5.44-1.03.56-1.6h.64v3.87c-.12.27-.2.43-.28.58-.08.15-.16.31-.27.54h-.66v-3.39h.01Zm-4.37-5.46c.3.1.58.25.82.45l2.73-2.73c-.91-1.1-2.15-1.85-3.55-2.04v-.03h4.01v2.7c-.08-.12-.16-.24-.24-.35l-2.7 2.7c.31.37.52.83.55 1.34h2.39v.36h-2.39c-.03.4-.17.78-.38 1.1h-.43a1.999 1.999 0 0 0-.82-3.17v-.34l.01.01Zm0 4.44v-.37c.15-.06.29-.13.42-.21h.53v.27l-.13-.13c-.24.2-.51.36-.82.45v-.01Zm0 4.32c.26-.03.51-.09.75-.16-.02.07-.04.15-.06.24h-.69v-.08Zm-4.72-2.27-.23.23c.07.09.15.17.23.26v1.87h-.56c-.1-.24-.18-.39-.26-.54-.08-.16-.16-.32-.28-.58v-2.38c.19.39.4.76.65 1.11l.45-.45v.51-.03Zm4.37-1.97c-.05 0-.11.02-.17.02v4.27c.06 0 .11 0 .17-.01v.05h-.59v-.04h.07v-4.27c-.11 0-.21-.03-.32-.05v-.36a1.993 1.993 0 0 0 .83.03v.36h.01Zm-4.01-8.87h3.17c-1.2.11-2.29.64-3.17 1.45v-1.45Zm0 6.39h1.34c.04-.51.24-.97.55-1.34l-1.89-1.89v-.51l2.15 2.15c.37-.31.83-.52 1.34-.55v-4.24h.36v4.24c.06 0 .11.01.17.02v.32a2 2 0 0 0-1.86 3.27h-.43c-.21-.32-.35-.7-.38-1.1h-1.34v-.36l-.01-.01Zm0 3.59 1.77-1.77h.77c.08.06.17.11.27.15v.38c-.24-.1-.47-.23-.66-.4l-2.15 2.15v-.51Zm0 1.71c.85.78 1.89 1.29 3.04 1.43 0 .02.01.05.02.07h-3.05v-1.51l-.01.01Zm-3.52-11.69h3.16v1.81c-.08.08-.15.17-.23.26l.23.23v.51l-.45-.45c-.81 1.1-1.31 2.51-1.35 4.04h1.8v.36h-1.8c0 .38.05.74.11 1.1h-1.47V48.63Zm0 8.2h1.55c.04.19.09.38.15.56v3.41c.15.29.24.47.33.64.06.12.12.23.19.38h-2.21v-4.99h-.01Zm-.36 4.99h-.06c-.32-.44-.46-.62-.79-1.07l-.06-.08v-3.84h.91v4.99Zm-1.99-13.19h1.99v7.85h-1.99v-7.85Zm0 8.2h.72v3.96l.13.18c.27.36.41.55.63.85h-1.49v-4.99h.01Zm-1.31 0h1v4.71l-1-1v-3.71Zm-1.1 0h.74v3.86l1.13 1.13h-.59l-1.28-1.28v-3.71Z"/><path fill="#007688" d="m1649.99 73.5-.27 16.03 9.07-3.18h23.28l-.22-12.93.72-.71V66.3h-8.82v3.04h-2.47V66.3h-10.71v3.04h-2.48V66.3h-8.82v6.41l.72.71v.08ZM1670.79 28.55h14.03v-.28h.14v-.36h-.3l-1.3-2.11-1.31 2.11h-.34v.23h-7.94v-.23h-.29l-1.31-2.11-1.3 2.11h-.34v.36h.26v.28ZM502.2 79.48h30.89v-1.66h2.01v-1.89h-2.74V62.59h-1.74v13.34h-8.19V56.39h-1.73v19.54h-2.19V56.39h-1.74v19.54h-11.6V60.56h-1.74v15.37h-3.24v1.89h2.01v1.66ZM892.34 154.18c1.88 0 3.58.81 4.76 2.1l1.33-22.18-22.48.87c-.72.03-1.3.6-1.35 1.32l-1 16.06.27 9.92c.02.63.54 1.14 1.17 1.13l9.96-.06h.28a.87.87 0 0 0 .82-1.1c-.13-.51-.2-1.05-.2-1.6 0-3.57 2.89-6.46 6.45-6.46h-.01Zm-12.58 8.49h-3.37v-24.73h.25l3.12-.17v24.9Zm4.24 0h-3.37v-24.94h.3l1-.07.55-.03h.13l1.39-.08v25.12Zm.87-12.23v-12.96l1.43-.07.97-.05.93-.05.47-.02 3.82-.19v12.2l-.13.02-3.92.59-1.24.19-2.32.35-.01-.01ZM902.25 163.88h6.03l-.03-1.48-6-.08v1.56ZM929.37 164.44v-1.77l-17.32-.23-.01 2h17.33ZM955.22 128.61c-.5-.16-.74.43-.74.43s-1.24-.16-2.37-.31c-1.13-.16-3.13 1.44-3.13 1.44h-.22l.03.08h-46.04c-.47 0-.9.28-1.09.72l-.62 1.47-.68 1.59h-.02l-1.53 25.54h-.08c.18.36.58.58 1 .53.27-.03.53-.03.78-.03.14 0 .41.05.77.13.25.06.55.13.87.22l27.58.35c.87-.08 1.78-.15 1.94-.12h.04c.67.04 1.24-.46 1.36-1.13.53-3.03 3.17-5.34 6.35-5.34 2.9 0 5.35 1.91 6.16 4.55.22.71.92 1.15 1.65 1.09h.03c.66-.05 1.22-.51 1.42-1.15a6.445 6.445 0 0 1 6.14-4.49c2.57 0 4.79 1.51 5.83 3.69.07.15.14.3.19.45.07.19.14.39.2.59.05.18.14.35.27.49l.03.07s.05.02.08.03c.11.09.23.16.37.21.34.11.76.23 1.29.34 1.49.31 4.57.97 6.21 1.09.54.23.94.37 1.14.37.64 0 1.11-.18 1.55-.43.44-.25.85-.58 1.38-.88l.38.53h3.46v-.07l-.19-27.14-20.39-3.9s-.89-.86-1.4-1.01ZM779.84 139.14l14.29 13.6 1.36-1.44-15.63-14.87-16.08 14.85 1.35 1.46 14.71-13.6ZM814.32 139.14l14.29 13.6 1.36-1.44-15.63-14.87-16.08 14.85 1.35 1.46 14.71-13.6ZM588.19 129.37l14.29 13.6 1.36-1.44-15.62-14.87-16.09 14.85 1.35 1.46 14.71-13.6ZM620.69 129.37l14.28 13.6 1.37-1.44-15.63-14.87-16.08 14.85 1.34 1.46 14.72-13.6ZM653.19 129.37l14.28 13.6 1.37-1.44-15.63-14.87-16.08 14.85 1.34 1.46 14.72-13.6ZM539.58 143.55l15.17-14.01 14.72 14.01 1.4-1.48-16.1-15.33-16.57 15.31 1.38 1.5ZM331.81 116.61l14.29 13.59 1.36-1.44-15.63-14.87-16.08 14.85 1.35 1.46 14.71-13.59ZM145.89 84.64l14.29 13.59 1.36-1.44-15.63-14.87-16.08 14.85 1.35 1.46 14.71-13.59Z"/><path fill="#007688" d="m1886.5 122.32-.26-10.33c.53.25 1.13.39 1.76.39 1.68 0 3.13-.99 3.8-2.41a3.525 3.525 0 0 0 4.95-3.22c0-1.94-1.45-3.38-3.28-3.5.07-.28.1-.57.1-.87 0-1.8-1.34-3.28-3.08-3.49v-.03c0-1.94-1.58-3.51-3.52-3.51-1.67 0-3.07 1.16-3.43 2.73a4.377 4.377 0 0 0-5.15 4.3c0 .08.01.15.01.23a4.244 4.244 0 0 0-5.15 4.14c0 2.34 1.9 4.25 4.25 4.25.61 0 1.19-.13 1.72-.37a3.526 3.526 0 0 0 4.57.41l-.28 10.75c-4.39-.82-8.66-1.7-12.79-2.69-3.19-.77-6.63-1.44-10.29-2.02l-.29-11.3c.39-.19.74-.44 1.05-.74.75.6 1.7.96 2.73.96a4.374 4.374 0 0 0 4.28-5.25 4.043 4.043 0 0 0 2.93-3.89c0-1.47-.78-2.76-1.96-3.47a4.042 4.042 0 0 0-4-4.61c-.34 0-.67.04-.99.12a4.047 4.047 0 0 0-3.91-3.01c-1.74 0-3.23 1.1-3.79 2.65a4.036 4.036 0 0 0-2.82-1.14c-2.23 0-4.04 1.81-4.04 4.04v.16a4.041 4.041 0 0 0-3.37 3.98c0 1.02.38 1.95 1 2.66a4.042 4.042 0 0 0 3.04 6.7c.18 0 .37-.01.54-.04.7 1.21 2.01 2.02 3.5 2.02 1.01 0 1.93-.37 2.64-.99l.15.06-.27 10.57c-9.23-1.28-19.67-2.08-30.9-2.69l-.31-12.08c.53.25 1.13.39 1.76.39 1.68 0 3.13-.99 3.8-2.42.44.2.92.31 1.43.31 1.94 0 3.52-1.58 3.52-3.52s-1.45-3.38-3.28-3.51c.07-.27.1-.56.1-.86 0-1.8-1.34-3.28-3.08-3.49v-.03c0-1.94-1.58-3.51-3.52-3.51-1.67 0-3.07 1.16-3.42 2.72-.26-.04-.52-.06-.78-.06-2.42 0-4.37 1.95-4.37 4.37v.22c-.29-.06-.59-.09-.9-.09-2.35 0-4.25 1.9-4.25 4.24 0 2.34 1.9 4.25 4.25 4.25.61 0 1.2-.14 1.72-.37.5.51 1.15.88 1.91 1.01.97.17 1.92-.07 2.66-.6l-.34 12.86c-18.8-.96-39.61-1.48-60.43-2.84-4.12-.27-8.78-.49-13.8-.65V94.99h1.08v-2.03h.79L1734 87.17h-75.67l-9.17 3.22-7.32 2.57h.78v2.03h1.09v15.77c-11.83.27-19.89.49-21.23.46-4.87-.14-60.84 10.7-82.75 14.59-15.93 2.84-31.21 9.78-45.39 15.29l-.45-17.36c.39-.19.74-.44 1.05-.74.75.6 1.7.96 2.73.96a4.36 4.36 0 0 0 4.28-5.25 4.052 4.052 0 0 0 2.94-3.89c0-1.47-.79-2.76-1.97-3.46a4.042 4.042 0 0 0-4-4.62c-.34 0-.67.04-.99.12a4.038 4.038 0 0 0-7.7-.36c-.73-.7-1.72-1.14-2.82-1.14-2.23 0-4.04 1.81-4.04 4.04v.16a4.044 4.044 0 0 0-3.37 3.99c0 1.01.38 1.94 1 2.65a4.042 4.042 0 0 0 3.04 6.7c.19 0 .37-.01.54-.03.7 1.2 2.01 2.01 3.5 2.01 1.01 0 1.94-.37 2.64-.98.05.02.1.03.15.05l-.48 18.65c-3.93 1.46-7.77 2.77-11.5 3.8-2.89.79-7.91 1.89-14.57 3.2l-.35-13.51c.54.25 1.13.39 1.76.39 1.68 0 3.14-.99 3.81-2.41.43.19.92.3 1.42.3 1.95 0 3.52-1.57 3.52-3.52s-1.45-3.38-3.28-3.5a3.515 3.515 0 0 0-2.98-4.36v-.02c0-1.95-1.57-3.52-3.52-3.52-1.67 0-3.06 1.17-3.42 2.73a4.374 4.374 0 0 0-5.15 4.3v.23c-.29-.07-.59-.1-.9-.1-2.34 0-4.24 1.9-4.24 4.24 0 2.34 1.9 4.25 4.24 4.25.61 0 1.2-.13 1.73-.37a3.516 3.516 0 0 0 4.56.41l-.39 15.08c-7.16 1.37-15.87 2.93-25.66 4.6l-.33-12.96c.29-.15.56-.34.79-.56.57.45 1.3.73 2.08.73a3.318 3.318 0 0 0 3.25-4 3.072 3.072 0 0 0 2.24-2.95c0-1.12-.6-2.1-1.5-2.64.02-.14.04-.29.04-.44a3.08 3.08 0 0 0-3.08-3.07c-.26 0-.51.03-.75.09a3.09 3.09 0 0 0-2.97-2.29c-1.33 0-2.46.84-2.89 2.02a3.07 3.07 0 0 0-5.21 2.2v.13a3.067 3.067 0 0 0-1.81 5.05c-.47.54-.76 1.24-.76 2.02 0 1.7 1.38 3.07 3.08 3.07.14 0 .27 0 .41-.03a3.064 3.064 0 0 0 4.67.79c.04.01.07.02.11.04l-.34 13.3c-18.89 3.18-41.4 6.68-64.18 9.83v-49.49L1339.23 100v65.78h-10v-66.9h-41.19v66.9h-10v-46.42h-20.66v46.42h-10.06v-59.41l-28.29 15.22v44.19h-10v-62.6h-27.1v62.6h-10v-46.92c0-.55-.45-1.01-1.01-1.01V69.64c0-.56-.45-1.01-1-1.01V33.18l.67-1.18V20.7h-6.55v5.55h-2.69V20.7h-4.41v5.55h-2.69V20.7h-4.41v5.55h-2.69V20.7h-4.49v5.55h-2.69V20.7h-4.38v145.08h-.98V0h-2.14v3.91h-1.07V0h-3.82v3.91h-2.48V0h-3.82v3.91h-1.03V0h-2.14v165.78h-.98V20.7h-4.34v11.19l.67 1.28v35.46c-.28 0-.53.11-.71.29-.18.18-.29.44-.29.72v18.81l-5.21 2.61v74.72h-10v-57.67h-34.56v57.67h-10.14v-56.72l-25.17 13.54v43.18h-72.72c2.53-.15 4.55-2.23 4.55-4.8s-2.17-4.83-4.82-4.83c-2.65 0-4.82 2.17-4.82 4.83s2.02 4.65 4.55 4.8h-14.83c2.53-.15 4.55-2.23 4.55-4.8s-2.16-4.83-4.82-4.83-4.82 2.17-4.82 4.83 2.02 4.65 4.55 4.8h-46.72c2.53-.15 4.55-2.23 4.55-4.8s-2.16-4.83-4.82-4.83-4.82 2.17-4.82 4.83 2.02 4.65 4.55 4.8h-65.61v-14.04l-12.11-11.55-12.59 11.55v13.99c-2.81-.28-6.18-.46-9.78-.61v-13.38l-12.11-11.55-12.59 11.55v12.02c-2.27-.31-4.02-.71-5.02-1.25-5.33-2.88-22.79-3.53-29.48-3.67l-.36-14.2c.53.25 1.13.38 1.76.38 1.68 0 3.13-.98 3.8-2.41.44.19.92.3 1.43.3 1.94 0 3.52-1.57 3.52-3.51 0-1.94-1.45-3.39-3.28-3.51.07-.28.1-.57.1-.87 0-1.79-1.34-3.27-3.08-3.49v-.02c0-1.94-1.58-3.52-3.52-3.52-1.67 0-3.07 1.17-3.43 2.73a4.377 4.377 0 0 0-5.15 4.3c0 .08.01.16.01.23-.29-.06-.59-.1-.9-.1-1.11 0-2.11.44-2.86 1.13.11-.35.17-.73.17-1.12 0-1.36-.72-2.55-1.81-3.2.02-.17.04-.35.04-.53 0-2.06-1.67-3.73-3.74-3.73-.31 0-.62.04-.91.11a3.735 3.735 0 0 0-7.12-.33 3.691 3.691 0 0 0-2.6-1.06c-2.07 0-3.74 1.67-3.74 3.74 0 .04 0 .09.01.14-1.77.3-3.12 1.83-3.12 3.69 0 .94.35 1.8.92 2.45-.57.66-.92 1.52-.92 2.46a3.73 3.73 0 0 0 3.73 3.73c.17 0 .34-.01.51-.03a3.727 3.727 0 0 0 5.67.95c.04.02.09.03.14.05l-.38 14.68c-9-.24-18.9-.54-26.05-.86l-.31-12.28c.31-.15.59-.35.84-.59.6.48 1.37.77 2.2.77 1.94 0 3.51-1.57 3.51-3.51 0-.25-.02-.49-.07-.72a3.245 3.245 0 0 0 .78-5.91c.02-.15.04-.31.04-.47 0-1.79-1.46-3.25-3.26-3.25-.27 0-.54.04-.79.1a3.264 3.264 0 0 0-3.15-2.42c-1.4 0-2.6.89-3.05 2.13-.59-.57-1.39-.92-2.27-.92-1.79 0-3.25 1.46-3.25 3.25v.13a3.257 3.257 0 0 0-1.91 5.35c-.5.57-.8 1.32-.8 2.14a3.25 3.25 0 0 0 3.25 3.25c.15 0 .29 0 .44-.03a3.24 3.24 0 0 0 2.81 1.62c.81 0 1.56-.3 2.13-.79.04 0 .08.03.12.04l-.31 11.96c-2.37-.12-4.26-.25-5.46-.38-1.87-.2-4.57-.41-7.79-.61v-14.31l-12.1-11.56-12.6 11.56v13.2c-2.64-.08-5.26-.15-7.8-.2v-13l-12.1-11.56-12.6 11.56v12.88c-2.73 0-5.34 0-7.79-.02v-12.86l-12.11-11.56-12.59 11.56v12.32c-2.49-.19-5.34-.42-8.38-.68v-11.1L554.2 130.6l-12.98 11.91v8.82c-7.54-.7-13.57-1.27-15.41-1.45v-40.92l22.05-28.65H487.6l22.05 28.65v44.18l-26.55 5.66s-3.19.8-7.74 1.88c-20.3-2.98-44.48-6.21-64.71-8.82l-.26-10.08c.31-.16.6-.36.85-.6.6.49 1.36.78 2.2.78 1.94 0 3.51-1.58 3.51-3.52 0-.24-.03-.48-.07-.71a3.258 3.258 0 0 0 2.36-3.13c0-1.18-.63-2.22-1.58-2.79.02-.15.03-.3.03-.46 0-1.8-1.45-3.25-3.25-3.25-.27 0-.54.03-.8.1a3.241 3.241 0 0 0-3.14-2.43c-1.4 0-2.6.89-3.06 2.14-.58-.57-1.38-.92-2.26-.92-1.8 0-3.25 1.45-3.25 3.25v.13c-.5.08-.96.29-1.35.57h-.02c.07-.28.11-.57.11-.86 0-1.8-1.35-3.28-3.09-3.49v-.03a3.51 3.51 0 0 0-3.52-3.51c-1.67 0-3.06 1.16-3.42 2.72-.25-.04-.51-.07-.78-.07-2.41 0-4.37 1.96-4.37 4.38v.22c-.29-.06-.59-.1-.9-.1a4.25 4.25 0 0 0-4.24 4.25c0 2.34 1.9 4.24 4.24 4.24.61 0 1.2-.13 1.73-.36.49.51 1.15.87 1.9 1.01.97.17 1.92-.08 2.66-.61l-.27 10.59c-12.09-1.51-20.44-2.51-21.86-2.65-2.58-.25-12.37-1.24-25.38-2.93V129.2l-12.11-11.55-12.59 11.55v10.95c-10.24-1.66-20.89-3.62-30.8-5.88l-.44-16.71c.32-.15.6-.35.85-.59.6.48 1.37.77 2.2.77 1.94 0 3.51-1.57 3.51-3.51 0-.24-.02-.48-.07-.71a3.258 3.258 0 0 0 2.36-3.13c0-1.18-.63-2.22-1.58-2.79.02-.15.04-.3.04-.46a3.252 3.252 0 0 0-4.05-3.15 3.261 3.261 0 0 0-3.15-2.43c-1.4 0-2.6.89-3.05 2.14-.59-.57-1.39-.92-2.27-.92a3.25 3.25 0 0 0-3.25 3.25v.13a3.238 3.238 0 0 0-2.71 3.2c0 .82.3 1.57.8 2.14-.5.57-.8 1.32-.8 2.14a3.244 3.244 0 0 0 3.69 3.22 3.24 3.24 0 0 0 2.81 1.62c.81 0 1.56-.3 2.13-.79.04.02.08.03.12.04l-.41 15.78c-.76-.18-1.51-.36-2.25-.55a378.32 378.32 0 0 0-16.1-3.58l-.27-10.26c.26-.13.49-.29.69-.48.48.39 1.1.62 1.78.62a2.838 2.838 0 0 0 2.78-3.42c1.1-.31 1.91-1.32 1.91-2.53 0-.96-.51-1.79-1.28-2.25.02-.13.03-.25.03-.38a2.633 2.633 0 0 0-3.28-2.55 2.62 2.62 0 0 0-2.54-1.96c-1.13 0-2.1.72-2.47 1.73a2.62 2.62 0 0 0-1.83-.75c-1.46 0-2.63 1.18-2.63 2.63v.11c-.54.09-1.02.35-1.39.71a2.833 2.833 0 0 0-2.26-1.44c.05-.22.08-.45.08-.69 0-1.44-1.07-2.62-2.46-2.79v-.02c0-1.55-1.26-2.81-2.82-2.81-1.33 0-2.45.93-2.74 2.18-.2-.04-.4-.06-.62-.06-1.93 0-3.49 1.57-3.49 3.5v.18a3.397 3.397 0 0 0-4.12 3.32c0 1.88 1.52 3.39 3.4 3.39.49 0 .96-.1 1.38-.29.39.41.92.7 1.52.81.78.13 1.53-.06 2.13-.49l-.28 10.56c-5.03-.83-9.96-1.61-14.78-2.36V109.9h1.39s-3.42-9.5-5.81-19.96l14.91 14.91 6.17-6.16.66.66.78-.77L226 73.79c0-.08-.01-.16-.01-.23l1.16-1.04-2.02-7.93c-.21-.32-.46-.62-.72-.91l.16-.17 6.17 6.17 25.55-25.55-6.17-6.17.67-.66-.78-.78-26.39 26.4c-1.23-1.04-2.88-1.89-5.04-2.5-.28-.16-.54-.34-.78-.53l3.32-3.32-25.56-25.55-6.16 6.17-.67-.67-.77.78 23.38 23.38c-2.75.92-4.61 2.24-5.72 3.91l-1.36 5.35-21.8 21.81 6.16 6.16-.66.67.77.77 14.88-14.87c-2.24 12.35-6.93 25.42-6.93 25.42h1.39v7.58c-1.95-.44-3.88-.89-5.77-1.37-5.21-1.32-11.1-2.35-17.5-3.17l-.22-8.48c.32-.16.6-.36.85-.6.6.49 1.37.78 2.2.78 1.94 0 3.51-1.58 3.51-3.52 0-.24-.02-.48-.07-.71a3.257 3.257 0 0 0 2.36-3.13c0-1.18-.63-2.22-1.58-2.79.02-.15.03-.3.03-.46a3.25 3.25 0 0 0-4.05-3.15 3.232 3.232 0 0 0-3.14-2.42c-1.4 0-2.6.88-3.05 2.13-.59-.57-1.39-.92-2.27-.92-1.8 0-3.25 1.45-3.25 3.25v.13a3.249 3.249 0 0 0-1.91 5.34c-.5.58-.8 1.32-.8 2.14 0 1.8 1.45 3.25 3.25 3.25.15 0 .29 0 .44-.03.56.97 1.61 1.63 2.81 1.63.81 0 1.56-.3 2.13-.8.04.02.08.03.12.05l-.21 7.97c-4.6-.54-9.45-.98-14.5-1.35V97.23l-12.11-11.55-12.59 11.55v12.62c-4.96-.22-10.03-.43-15.16-.65l-.41-15.76c.35-.17.67-.4.95-.67.68.55 1.54.88 2.48.88 2.19 0 3.96-1.78 3.96-3.97 0-.27-.03-.54-.08-.8a3.666 3.666 0 0 0 2.66-3.53c0-1.33-.71-2.5-1.78-3.14a3.664 3.664 0 0 0-4.52-4.08 3.681 3.681 0 0 0-3.55-2.73c-1.58 0-2.93 1-3.44 2.41a3.664 3.664 0 0 0-6.22 2.63v.14c-1.74.29-3.06 1.8-3.06 3.62 0 .55.13 1.06.35 1.53-.1-.02-.2-.05-.3-.06v-.03a2.812 2.812 0 0 0-5.55-.63c-.2-.03-.41-.05-.62-.05-1.93 0-3.5 1.56-3.5 3.5v.18a3.38 3.38 0 0 0-.72-.08c-1.87 0-3.39 1.52-3.39 3.39s1.52 3.4 3.39 3.4c.49 0 .96-.11 1.38-.3a2.816 2.816 0 0 0 3.65.33l-.33 12.94c-4.07-.21-8.15-.45-12.24-.72l-.47-18.19c.4-.2.77-.46 1.09-.78.79.63 1.78 1.01 2.86 1.01 2.52 0 4.57-2.04 4.57-4.57 0-.31-.03-.62-.1-.92a4.233 4.233 0 0 0 3.07-4.07 4.2 4.2 0 0 0-2.05-3.62c.03-.2.04-.4.04-.61a4.22 4.22 0 0 0-5.26-4.09 4.23 4.23 0 0 0-8.06-.38 4.23 4.23 0 0 0-7.17 3.03c0 .06 0 .11.01.17-1.36.22-2.48 1.1-3.07 2.28a3.192 3.192 0 0 0-2.35-1.03c-1.37 0-2.54.86-2.98 2.08-.58-.55-1.36-.9-2.22-.9-1.75 0-3.18 1.43-3.18 3.18 0 .04 0 .08.01.13-.63.1-1.19.4-1.64.81-.47-.37-1.06-.6-1.71-.6-1.34 0-2.45.93-2.74 2.18-.2-.03-.41-.05-.62-.05-.43 0-.83.09-1.2.22a3.682 3.682 0 0 0-1.75-2.7c.02-.17.03-.35.03-.52a3.664 3.664 0 0 0-4.56-3.56 3.681 3.681 0 0 0-3.55-2.73c-1.58 0-2.93 1-3.44 2.41a3.622 3.622 0 0 0-2.56-1.04c-1.07 0-2.02.46-2.69 1.19.02-.17.04-.35.04-.53 0-2.14-1.74-3.88-3.89-3.88-.33 0-.65.04-.95.11a3.897 3.897 0 0 0-7.42-.34c-.7-.68-1.65-1.1-2.71-1.1-2.14 0-3.88 1.74-3.88 3.89v.15a3.907 3.907 0 0 0-3.03 2.58c-1.32.36-2.3 1.56-2.3 3v.12c-1.4.24-2.46 1.39-2.59 2.82a4.195 4.195 0 0 0-3.35 4.11c0 .07.01.14.01.21-.28-.06-.57-.09-.87-.09C1.83 86.98 0 88.8 0 91.05a4.074 4.074 0 0 0 5.73 3.72c.47.49 1.1.84 1.82.97.93.16 1.84-.07 2.55-.58l-.29 11.29c-2.15.03-7.7.06-9.81.09V169h1924v-40.97c-13.06-2.02-25.97-3.67-37.5-5.71Zm.38-18.44c.03.07.07.15.11.22l-.23.06c.04-.09.08-.18.12-.28Zm-60.6-10.2c.03.07.07.15.11.22l-.23.06c.04-.09.08-.19.12-.28Zm-361.67 34.3c.04.07.07.15.11.22-.07.02-.15.04-.23.06.05-.09.09-.18.12-.28Zm-732.13 8.54c.03.08.07.15.11.22-.08.02-.15.04-.23.07.04-.1.08-.19.12-.29ZM227.14 65.59l1.05-1.05 1.64 1.63-1.06 1.05-1.63-1.63Zm23.92-20.66-1.05 1.05-1.63-1.63 1.05-1.05 1.63 1.63Zm-1.35-1.91 1.05-1.05 1.63 1.63-1.05 1.05-1.63-1.63Zm.03 3.24-1.06 1.05-1.63-1.63 1.05-1.05 1.64 1.63Zm-1.33 1.33-1.05 1.05-1.63-1.63 1.05-1.06 1.63 1.64Zm-1.33 1.32-1.05 1.05-1.63-1.63 1.05-1.05 1.63 1.63Zm-1.33 1.33-1.05 1.05-1.63-1.63 1.05-1.05 1.63 1.63Zm-1.32 1.33-1.05 1.05-1.64-1.63 1.05-1.05 1.64 1.63Zm-1.33 1.33-1.05 1.05-1.63-1.64 1.05-1.05 1.63 1.64Zm-1.33 1.32-1.05 1.05-1.63-1.63 1.05-1.05 1.63 1.63Zm-1.33 1.33-1.05 1.05-1.63-1.63 1.05-1.05 1.63 1.63Zm-1.32 1.33-1.05 1.05-1.64-1.63 1.06-1.05 1.63 1.63Zm-1.33 1.32-1.05 1.06-1.63-1.64 1.05-1.05 1.63 1.63Zm-1.33 1.33-1.05 1.05-1.63-1.63 1.05-1.05 1.63 1.63Zm-1.33 1.33-1.05 1.05-1.63-1.63 1.05-1.05 1.63 1.63Zm-1.32 1.33-1.05 1.05-1.63-1.63 1.05-1.06 1.63 1.64Zm-1.33 1.32-1.05 1.05-1.63-1.63 1.05-1.05 1.63 1.63Zm-1.33 1.33-1.05 1.05-1.63-1.63 1.05-1.05 1.63 1.63Zm-.44 4.31-1.63-1.63 1.05-1.05 1.63 1.63-1.05 1.05Zm1.33-1.32-1.63-1.63 1.05-1.05 1.63 1.63-1.05 1.05Zm1.33-1.33-1.64-1.63 1.05-1.05 1.64 1.63-1.05 1.05Zm1.32-1.33-1.63-1.63 1.05-1.05 1.63 1.63-1.05 1.05Zm1.33-1.32-1.63-1.64 1.05-1.05 1.63 1.63-1.05 1.06Zm1.33-1.33-1.63-1.63 1.05-1.05 1.63 1.63-1.05 1.05Zm1.32-1.33-1.63-1.63 1.05-1.05 1.64 1.63-1.06 1.05Zm1.33-1.33-1.63-1.63 1.05-1.05 1.63 1.63-1.05 1.05Zm1.33-1.32-1.63-1.64 1.05-1.05 1.63 1.64-1.05 1.05Zm1.33-1.33-1.64-1.63 1.06-1.05 1.63 1.63-1.05 1.05Zm1.32-1.33-1.63-1.63 1.05-1.05 1.63 1.63-1.05 1.05Zm1.33-1.33-1.63-1.63 1.05-1.05 1.63 1.63-1.05 1.05Zm1.33-1.32-1.63-1.63 1.05-1.06 1.63 1.64-1.05 1.05Zm1.33-1.33-1.64-1.63 1.06-1.05 1.63 1.63-1.05 1.05Zm1.32-1.33-1.63-1.63 1.05-1.05 1.63 1.63-1.05 1.05Zm1.33-1.33-1.63-1.63 1.05-1.05 1.63 1.63-1.05 1.05Zm1.33-1.32-1.63-1.63 1.05-1.05 1.63 1.63-1.05 1.05Zm1.33-1.33-1.64-1.63 1.05-1.05 1.64 1.63-1.05 1.05Zm2.37-2.38-1.05 1.05-1.63-1.63 1.05-1.05 1.63 1.63Zm-1.93-1.93-1.05 1.05-1.63-1.63 1.05-1.06 1.63 1.64Zm-3.6-3.6 1.63 1.63-1.05 1.05-1.63-1.63 1.05-1.05Zm-1.32 1.33 1.63 1.63-1.05 1.05-1.64-1.63 1.06-1.05Zm-1.33 1.33 1.63 1.63-1.05 1.05-1.63-1.63 1.05-1.05Zm-1.33 1.32 1.63 1.64-1.05 1.05-1.63-1.64 1.05-1.05Zm-1.33 1.33 1.63 1.63-1.05 1.05-1.63-1.63 1.05-1.05Zm-1.32 1.33 1.63 1.63-1.05 1.05-1.63-1.63 1.05-1.05Zm-1.33 1.33 1.63 1.63-1.05 1.05-1.63-1.63 1.05-1.05Zm-1.33 1.32 1.63 1.63-1.05 1.06-1.63-1.64 1.05-1.05Zm-1.33 1.33 1.64 1.63-1.06 1.05-1.63-1.63 1.05-1.05Zm-1.32 1.33 1.63 1.63-1.05 1.05-1.63-1.63 1.05-1.05Zm-1.33 1.32 1.63 1.64-1.05 1.05-1.63-1.63 1.05-1.06Zm-1.33 1.33 1.63 1.63-1.05 1.05-1.63-1.63 1.05-1.05Zm-1.33 1.33 1.64 1.63-1.05 1.05-1.64-1.63 1.05-1.05Zm-1.32 1.33 1.63 1.63-1.05 1.05-1.63-1.63 1.05-1.05Zm-1.33 1.32 1.63 1.64-1.05 1.05-1.63-1.64 1.05-1.05Zm-1.33 1.33 1.63 1.63-1.05 1.05-1.63-1.63 1.05-1.05Zm-1.32 1.33 1.63 1.63-1.05 1.05-1.64-1.63 1.06-1.05Zm-1.33 1.33 1.63 1.63-1.05 1.05-1.63-1.63 1.05-1.05Zm-1.33 1.32 1.63 1.63-1.05 1.06-1.63-1.64 1.05-1.05ZM16.27 106.38c-1.19.01-2.37.02-3.55.04l-.27-10.35c.52.24 1.09.38 1.69.38.91 0 1.74-.31 2.41-.81l-.28 10.74Zm6.67-.06-3.54.03-.31-11.94s.04.01.07.01c1.86 0 3.37-1.51 3.37-3.37 0-.01-.01-.03-.01-.04.29-.05.57-.14.83-.27l-.41 15.58Zm17.53-.05c-4.51-.01-9.08 0-13.67.03l-.48-18.43c.37-.18.71-.42 1.01-.71.72.58 1.63.93 2.63.93.4 0 .78-.08 1.15-.18a3.66 3.66 0 0 0 3.54 2.74c.16 0 .33-.01.49-.03a3.681 3.681 0 0 0 3.17 1.83c.92 0 1.76-.34 2.4-.9.04.02.09.04.13.05l-.37 14.67Zm14.73.12c-3.65-.05-7.41-.08-11.23-.1l-.39-14.88c.36-.17.68-.4.95-.67.68.55 1.55.87 2.48.87.24 0 .46-.03.69-.07a3.38 3.38 0 0 0 2.81 1.51c.5 0 .96-.11 1.38-.3a2.817 2.817 0 0 0 3.65.33l-.34 13.31Zm2.82-19.04c.02.06.05.12.09.18-.07.02-.13.03-.19.05.04-.07.07-.15.1-.23Zm8.93 19.29c-2.94-.08-5.99-.15-9.12-.2l-.33-12.6c.43.2.91.31 1.41.31 1.35 0 2.51-.79 3.04-1.93.35.16.74.24 1.15.24.41 0 .77-.08 1.12-.23a3.149 3.149 0 0 0 3-.64c.04.02.07.03.11.04l-.38 15.01Zm15.66.69c-3.8-.24-8-.44-12.51-.59l-.39-15.27c.3-.15.58-.35.82-.58.59.47 1.34.76 2.15.76 1.8 0 3.25-1.38 3.41-3.13.13 0 .27-.01.4-.03.74 1.26 2.1 2.11 3.66 2.11 1.06 0 2.02-.39 2.76-1.03.06.02.11.04.16.06l-.46 17.7Zm19.13-17.68.09.18c-.06.02-.12.03-.18.05.03-.07.06-.15.09-.23Zm12.3 19.39c-4.13-.18-8.3-.37-12.49-.58l-.32-12.32a3.356 3.356 0 0 0 4.45-1.62c.35.16.74.24 1.14.24 1.05 0 1.95-.58 2.44-1.42a3.662 3.662 0 0 0 5.05.25c.04 0 .09.03.13.04l-.4 15.41Zm25.7-4.94h-4.37v-4.38h4.37v4.38Zm8.47 6.54c-2.05-.12-4.13-.23-6.23-.34V99.72h6.23v10.92Zm6.66-6.54h-4.38v-4.38h4.38v4.38Zm49.18-33.4h.01l-.42 1.69-.64-.64 1.05-1.05Zm-1.32 1.33 1.63 1.63-1.05 1.05-1.63-1.63 1.05-1.05Zm-1.33 1.33 1.63 1.63-1.05 1.05-1.63-1.63 1.05-1.05Zm-13.72 17.58 1.05-1.05 1.64 1.64-1.06 1.05-1.63-1.64Zm1.36 1.91-1.05 1.05-1.63-1.63 1.05-1.05 1.63 1.63Zm-.03-3.23 1.05-1.05 1.63 1.63-1.05 1.05-1.63-1.63Zm1.33-1.33 1.05-1.05 1.63 1.63-1.05 1.05-1.63-1.63Zm1.33-1.33 1.05-1.05 1.63 1.63-1.05 1.05-1.63-1.63Zm1.32-1.32 1.05-1.06 1.63 1.64-1.05 1.05-1.63-1.63Zm1.33-1.33 1.05-1.05 1.63 1.63-1.05 1.05-1.63-1.63Zm1.33-1.33 1.05-1.05 1.63 1.63-1.05 1.05-1.63-1.63Zm1.32-1.33 1.06-1.05 1.63 1.63-1.05 1.06-1.64-1.64Zm1.33-1.32 1.05-1.05 1.63 1.63-1.05 1.05-1.63-1.63Zm1.33-1.33 1.05-1.05 1.63 1.63-1.05 1.05-1.63-1.63Zm1.33-1.33 1.05-1.05 1.63 1.63-1.05 1.05-1.63-1.63Zm-.89-2.98 1.63 1.63-1.05 1.05-1.63-1.63 1.05-1.05Zm-1.33 1.32 1.64 1.63-1.06 1.05-1.63-1.63 1.05-1.05Zm-1.32 1.33 1.63 1.63-1.05 1.05-1.63-1.63 1.05-1.05Zm-1.33 1.33 1.63 1.63-1.05 1.05-1.63-1.63 1.05-1.05Zm-1.33 1.32 1.63 1.64-1.05 1.05-1.63-1.63 1.05-1.06Zm-1.32 1.33 1.63 1.63-1.05 1.05-1.64-1.63 1.06-1.05Zm-1.33 1.33 1.63 1.63-1.05 1.05-1.63-1.63 1.05-1.05Zm-1.33 1.33 1.63 1.63-1.05 1.05-1.63-1.63 1.05-1.05Zm-1.33 1.32 1.63 1.64-1.05 1.05-1.63-1.64 1.05-1.05Zm-1.32 1.33 1.63 1.63-1.05 1.05-1.64-1.63 1.06-1.05Zm-1.33 1.33 1.63 1.63-1.05 1.05-1.63-1.63 1.05-1.05Zm-1.33 1.33 1.63 1.63-1.05 1.05-1.63-1.63 1.05-1.05Zm-2.38 2.37 1.05-1.05 1.64 1.63-1.06 1.06-1.63-1.64Zm1.94 1.94 1.05-1.05 1.63 1.63-1.05 1.05-1.63-1.63Zm3.59 3.59-1.63-1.63 1.05-1.05 1.63 1.63-1.05 1.05Zm1.33-1.32-1.63-1.63 1.05-1.06 1.63 1.64-1.05 1.05Zm1.33-1.33-1.63-1.63 1.05-1.05 1.63 1.63-1.05 1.05Zm1.33-1.33-1.64-1.63 1.05-1.05 1.64 1.63-1.05 1.05Zm1.32-1.33-1.63-1.63 1.05-1.05 1.63 1.63-1.05 1.05Zm1.33-1.32-1.63-1.63 1.05-1.05 1.63 1.63-1.05 1.05Zm1.33-1.33-1.63-1.63 1.05-1.05 1.63 1.63-1.05 1.05Zm1.32-1.33-1.63-1.63 1.05-1.05 1.64 1.63-1.06 1.05Zm1.33-1.32-1.63-1.64 1.05-1.05 1.63 1.63-1.05 1.06Zm1.33-1.33-1.63-1.63 1.05-1.05 1.63 1.63-1.05 1.05Zm1.33-1.33-1.63-1.63 1.05-1.05 1.63 1.63-1.05 1.05Zm2.16-2.16-.84.83-1.63-1.63 1.05-1.05 1.47 1.47c-.02.13-.03.25-.05.38Zm.12-.86-1.26-1.27 1.05-1.05.45.45c-.07.62-.15 1.24-.24 1.87Zm.29-2.37-.22-.22.27-.28c-.01.17-.03.34-.05.5Zm.12-1.23-.67.68-1.64-1.64 1.05-1.05 1.31 1.31c-.01.23-.03.47-.05.7Zm.09-1.22-1.07-1.06 1.05-1.05.09.09c-.01.66-.03 1.33-.07 2.02Zm15.91-19.48-1.63 1.63-1.05-1.05 1.63-1.63 1.05 1.05Zm-1.33-1.33-1.63 1.63-1.05-1.05 1.63-1.63 1.05 1.05Zm-3.98-3.98-1.63 1.63-1.05-1.05 1.63-1.63 1.05 1.05Zm-18.91-15.04 1.05 1.05-1.63 1.63-1.06-1.05 1.64-1.63Zm-1.91 1.35-1.05-1.05 1.63-1.63 1.05 1.05-1.63 1.63Zm3.23-.02 1.05 1.05-1.63 1.63-1.05-1.05 1.63-1.63Zm1.33 1.32 1.05 1.05-1.63 1.64-1.05-1.06 1.63-1.63Zm1.33 1.33 1.05 1.05-1.63 1.63-1.05-1.05 1.63-1.63Zm1.33 1.33 1.05 1.05-1.64 1.63-1.05-1.05 1.64-1.63Zm1.32 1.32 1.05 1.06-1.63 1.63-1.05-1.05 1.63-1.64Zm1.33 1.33 1.05 1.05-1.63 1.63-1.05-1.05 1.63-1.63Zm1.33 1.33 1.05 1.05-1.63 1.63-1.05-1.05 1.63-1.63Zm1.32 1.33 1.06 1.05-1.64 1.63-1.05-1.05 1.63-1.63Zm1.33 1.32 1.05 1.05-1.63 1.64-1.05-1.05 1.63-1.64Zm1.33 1.33 1.05 1.05-1.63 1.63-1.05-1.05 1.63-1.63Zm1.33 1.33 1.05 1.05-1.63 1.63-1.05-1.05 1.63-1.63Zm1.32 1.33 1.05 1.05-1.63 1.63-1.05-1.05 1.63-1.63Zm1.33 1.32 1.05 1.05-1.63 1.64-1.05-1.06 1.63-1.63Zm.33-3.54-1.63 1.64-1.05-1.06 1.63-1.63 1.05 1.05Zm-1.32-1.32-1.64 1.63-1.05-1.05 1.64-1.63 1.05 1.05Zm-1.33-1.33-1.63 1.63-1.05-1.05 1.63-1.63 1.05 1.05Zm-1.33-1.33-1.63 1.63-1.05-1.05 1.63-1.63 1.05 1.05Zm-1.33-1.33-1.63 1.64-1.05-1.05 1.63-1.64 1.05 1.05Zm-1.32-1.32-1.63 1.63-1.06-1.05 1.64-1.63 1.05 1.05ZM205.99 42l-1.63 1.63-1.05-1.05 1.63-1.63 1.05 1.05Zm-1.33-1.33-1.63 1.63-1.05-1.05 1.63-1.63 1.05 1.05Zm-1.33-1.32-1.63 1.63-1.05-1.05 1.63-1.64 1.05 1.06Zm-1.32-1.33-1.63 1.63-1.05-1.05 1.63-1.63 1.05 1.05Zm-1.33-1.33-1.63 1.63-1.05-1.05 1.63-1.63 1.05 1.05Zm-1.33-1.33-1.63 1.63-1.05-1.05 1.63-1.63 1.05 1.05Zm-1.32-1.32-1.64 1.63-1.05-1.05 1.63-1.63 1.06 1.05Zm-2.38-2.38 1.05 1.05-1.63 1.63-1.05-1.05 1.63-1.63Zm-1.94 1.93 1.05 1.05-1.63 1.64-1.05-1.05 1.63-1.64Zm-3.59 3.6 1.63-1.63 1.05 1.05-1.63 1.63-1.05-1.05Zm1.32 1.33 1.64-1.64 1.05 1.05-1.64 1.64-1.05-1.05Zm1.33 1.32 1.63-1.63 1.05 1.05-1.63 1.63-1.05-1.05Zm1.33 1.33 1.63-1.63 1.05 1.05-1.63 1.63-1.05-1.05Zm1.33 1.33 1.63-1.63 1.05 1.05-1.63 1.63-1.05-1.05Zm1.32 1.33 1.63-1.64 1.06 1.05-1.64 1.64-1.05-1.05Zm1.33 1.32 1.63-1.63 1.05 1.05-1.63 1.63-1.05-1.05Zm1.33 1.33 1.63-1.63 1.05 1.05-1.63 1.63-1.05-1.05Zm1.33 1.33 1.63-1.63 1.05 1.05-1.63 1.63-1.05-1.05Zm1.32 1.32 1.63-1.63 1.05 1.05-1.63 1.64-1.05-1.06Zm1.33 1.33 1.63-1.63 1.05 1.05-1.63 1.63-1.05-1.05Zm1.33 1.33 1.63-1.63 1.05 1.05-1.63 1.63-1.05-1.05Zm1.32 1.33 1.64-1.64 1.05 1.06-1.63 1.63-1.06-1.05Zm1.33 1.32 1.63-1.63 1.05 1.05-1.63 1.63-1.05-1.05Zm1.33 1.33 1.63-1.63 1.05 1.05-1.63 1.63-1.05-1.05Zm2.38 2.38-1.05-1.05 1.63-1.63 1.05 1.05-1.63 1.63Zm.27.28 1.64-1.64 1.05 1.05-1.64 1.64-1.05-1.05Zm1.53 1.52-.2-.2 1.63-1.63.17.17c-.4.62-.93 1.17-1.6 1.66Zm1.84-2.09-.08-.07.25-.24c-.05.1-.12.21-.17.31Zm.24-.94-.59.59-1.05-1.05 1.63-1.63.08.09-.07 2Zm.12-3.28-.02.52-.08.09-1.05-1.05 1.63-1.63 1.05 1.05-1.02 1.02h-.51Zm.61.45 1.19-1.19 1.06 1.05-1.64 1.63-.58-.58-.03-.91Zm.06 1.54.25.25-.23.24-.02-.49Zm.07 1.82-.03-.8.49-.49 1.05 1.05-1.07 1.06c-.17-.26-.32-.53-.44-.82Zm.68 1.14 1.1-1.1 1.05 1.05-1.13 1.13c-.4-.33-.73-.69-1.02-1.08Zm12.27 31.3 1.64-1.63 1.05 1.05-1.63 1.63-1.06-1.05Zm2.24-4.89 1.06 1.05-1.64 1.63-1.05-1.05 1.63-1.63Zm-1.9 1.35-1.05-1.05 1.63-1.63 1.05 1.05-1.63 1.63Zm13.27 13.28-1.05-1.05 1.63-1.63 1.05 1.05-1.63 1.63Zm1.91-1.36 1.05 1.05-1.63 1.64-1.05-1.06 1.63-1.63Zm-3.24.03L240 97.25l1.63-1.63 1.05 1.05-1.63 1.63Zm-1.32-1.33-1.06-1.05 1.64-1.63 1.05 1.05-1.63 1.63Zm-1.33-1.32-1.05-1.06 1.63-1.63 1.05 1.05-1.63 1.64Zm-1.33-1.33-1.05-1.05 1.63-1.63 1.05 1.05-1.63 1.63Zm-1.33-1.33-1.05-1.05 1.63-1.63 1.05 1.05-1.63 1.63Zm-1.32-1.33-1.05-1.05 1.63-1.63 1.05 1.05-1.63 1.63Zm-1.33-1.32-1.05-1.05 1.63-1.64 1.05 1.06-1.63 1.63Zm-1.33-1.33-1.05-1.05 1.63-1.63 1.05 1.05-1.63 1.63Zm-1.66 2.21 1.63-1.63 1.05 1.05-1.63 1.63-1.05-1.05Zm1.33 1.33 1.63-1.63 1.05 1.05-1.63 1.63-1.05-1.05Zm1.33 1.33 1.63-1.64 1.05 1.06-1.63 1.63-1.05-1.05Zm1.32 1.32 1.64-1.63 1.05 1.05-1.64 1.63-1.05-1.05Zm1.33 1.33 1.63-1.63 1.05 1.05-1.63 1.63-1.05-1.05Zm1.33 1.33 1.63-1.63 1.05 1.05-1.63 1.63-1.05-1.05Zm1.33 1.33 1.63-1.64 1.05 1.05-1.63 1.64-1.05-1.05Zm1.32 1.32 1.63-1.63 1.06 1.05-1.64 1.63-1.05-1.05Zm1.33 1.33 1.63-1.63 1.05 1.05-1.63 1.63-1.05-1.05Zm2.38 2.38-1.05-1.05 1.63-1.63 1.05 1.05-1.63 1.63Zm1.93-1.94-1.05-1.05 1.64-1.63 1.05 1.05-1.64 1.63Zm3.6-3.59-1.63 1.63-1.05-1.05 1.63-1.63 1.05 1.05Zm-1.33-1.33-1.63 1.63-1.05-1.05 1.63-1.63 1.05 1.05Zm-1.33-1.33-1.63 1.63-1.05-1.05 1.63-1.63 1.05 1.05Zm-1.32-1.32-1.63 1.63-1.05-1.05 1.63-1.64 1.05 1.06Zm-1.33-1.33-1.63 1.63-1.05-1.05 1.63-1.63 1.05 1.05Zm-1.33-1.33-1.63 1.63-1.05-1.05 1.63-1.63 1.05 1.05Zm-1.32-1.33-1.64 1.64-1.05-1.06 1.63-1.63 1.06 1.05Zm-1.33-1.32-1.63 1.63-1.05-1.05 1.63-1.63 1.05 1.05Zm-1.33-1.33-1.63 1.63-1.05-1.05 1.63-1.63 1.05 1.05Zm-1.33-1.33-1.63 1.63-1.05-1.05 1.63-1.63 1.05 1.05Zm-1.32-1.33-1.64 1.64-1.05-1.05 1.64-1.64 1.05 1.05Zm-1.33-1.32-1.63 1.63-1.05-1.05 1.63-1.63 1.05 1.05Zm-1.33-1.33-1.63 1.63-1.05-1.05 1.63-1.63 1.05 1.05Zm-1.33-1.33-1.63 1.63-1.05-1.05 1.63-1.63 1.05 1.05Zm-1.32-1.32-1.63 1.63-1.06-1.05 1.64-1.64 1.05 1.06Zm-3.94-3.48.23-.23 1.05 1.05-1.1 1.11c-.07-.66-.13-1.3-.18-1.93Zm.23 2.43 1.33-1.33 1.05 1.05-1.63 1.63-.67-.67c-.03-.23-.06-.46-.08-.68Zm.18 1.44.24.24-.18.18c-.02-.14-.05-.28-.06-.42Zm.12.91.39-.39 1.05 1.05-1.15 1.15c-.1-.61-.2-1.21-.29-1.81Zm.37 2.29 1.35-1.36 1.05 1.06-1.63 1.63-.65-.65c-.04-.23-.08-.46-.12-.68Zm.25 1.42.22.21-.15.14c-.02-.11-.04-.23-.07-.35Zm.16.82.33-.33 1.05 1.05-1.02 1.03c-.13-.59-.24-1.17-.36-1.75Zm.45 2.2 1.21-1.2 1.05 1.05-1.63 1.63-.39-.39c-.08-.36-.16-.72-.24-1.09Zm22.35 21.53.09.18c-.06.01-.12.03-.18.05.03-.08.06-.15.09-.23Zm13.55 19.21c-4.68-.92-9.28-1.74-13.8-2.51l-.26-10.21c.43.2.9.31 1.41.31 1.34 0 2.5-.79 3.04-1.93a2.793 2.793 0 0 0 3.19-.66c.07.12.15.23.24.33-.4.46-.65 1.07-.65 1.73 0 1.45 1.18 2.63 2.63 2.63.12 0 .24-.01.36-.02a2.622 2.622 0 0 0 3.99.67l.1.03-.25 9.63Zm61.89 7.19h-4.37v-4.38h4.37v4.38Zm8.47 6.42c-2.03-.29-4.11-.59-6.23-.9v-9.9h6.23v10.8Zm6.66-6.42h-4.38v-4.38h4.38v4.38Zm53.18-4.5c.04.08.07.15.11.23-.07.01-.15.04-.23.06.05-.09.08-.19.12-.29Zm13.75 19.92c-5.04-.65-9.79-1.25-14.13-1.8l-.26-10c.54.25 1.13.39 1.76.39 1.68 0 3.13-.99 3.81-2.42.1.05.21.07.32.11v.08c0 1.8 1.45 3.25 3.25 3.25.15 0 .29 0 .43-.03.57.97 1.62 1.62 2.82 1.62.81 0 1.55-.29 2.12-.79.04.02.08.03.12.05l-.24 9.54Zm140.71-1.9h-4.51v-4.51h4.51v4.51Zm8.72 3.19-6.42-.57v-7.13h6.42v7.7Zm6.86-3.19h-4.51v-4.51h4.51v4.51Zm18.03-.75h-4.37v-4.38h4.37v4.38Zm8.47 5.97c-2.5 0-4.61 0-6.23.02v-10.37h6.23v10.35Zm6.66-5.97h-4.38v-4.38h4.38v4.38Zm17.37 0h-4.38v-4.38h4.38v4.38Zm8.47 5.99h-3.33c-.98 0-1.94.01-2.9.01v-10.38h6.23v10.37Zm6.66-5.99h-4.38v-4.38h4.38v4.38Zm17.37 0h-4.38v-4.38h4.38v4.38Zm8.46 6.93c-2.01-.09-4.1-.18-6.23-.27v-11.04h6.23v11.31Zm6.66-6.93h-4.37v-4.38h4.37v4.38Zm66.83 9.95c-2.05-.04-9.47-.2-18.35-.42l-.39-14.97c.36-.17.69-.4.97-.68a4.03 4.03 0 0 0 6.56-3.14c0-.28-.02-.56-.08-.82.53-.15 1.01-.43 1.41-.78-.16.45-.26.92-.26 1.42 0 2.34 1.9 4.24 4.25 4.24.61 0 1.19-.13 1.72-.36.5.51 1.15.87 1.91 1 .97.18 1.91-.07 2.66-.6l-.4 15.11Zm44.7-.18h-4.37v-4.38h4.37v4.38Zm8.47 6.18c-2.13-.08-4.22-.17-6.23-.27v-10.29h6.23v10.56Zm6.66-6.18h-4.38v-4.38h4.38v4.38Zm19.35 0h-4.37v-4.38h4.37v4.38Zm8.47 7.17h-6.23v-11.55h6.23v11.55Zm6.66-7.17h-4.38v-4.38h4.38v4.38Zm65.55 2.37c0-1.61 1.31-2.92 2.91-2.92s2.91 1.31 2.91 2.92c0 1.61-1.3 2.92-2.91 2.92s-2.91-1.31-2.91-2.92Zm47.26.04v-.04c0-.73.27-1.4.72-1.91.01-.02.03-.04.05-.06.54-.58 1.3-.95 2.14-.95 1.61 0 2.91 1.31 2.91 2.92 0 1.61-1.3 2.92-2.91 2.92s-2.89-1.29-2.91-2.88Zm15.37-.04c0-1.61 1.3-2.92 2.91-2.92s2.91 1.31 2.91 2.92c0 1.61-1.31 2.92-2.91 2.92s-2.91-1.31-2.91-2.92Zm86.76-5.94h-7.66v-7.65h7.66v7.65Zm0-11.21h-7.66v-7.66h7.66v7.66Zm0-11.22h-7.66v-7.66h7.66v7.66Zm11.11 22.43h-7.65v-7.65h7.65v7.65Zm0-11.21h-7.65v-7.66h7.65v7.66Zm0-11.22h-7.65v-7.66h7.65v7.66Zm24.33 19.84h-7.96v-7.96h7.96v7.96Zm0-10.73h-7.96v-7.96h7.96v7.96Zm0-10.72h-7.96v-7.97h7.96V131Zm0-10.73h-7.96v-7.97h7.96v7.97Zm10.34 32.18h-7.96v-7.96h7.96v7.96Zm0-10.73h-7.96v-7.96h7.96v7.96Zm0-10.72h-7.96v-7.97h7.96V131Zm0-10.73h-7.96v-7.97h7.96v7.97Zm10.35 32.18h-7.97v-7.96h7.97v7.96Zm0-10.73h-7.97v-7.96h7.97v7.96Zm0-10.72h-7.97v-7.97h7.97V131Zm0-10.73h-7.97v-7.97h7.97v7.97Zm52.51-76.64c0-1.35 1.06-2.44 2.36-2.44 1.3 0 2.36 1.09 2.36 2.44v6.48h-4.72v-6.48Zm5.8 59.33h-5.61v-5.05c0-1.24 2.8-2.6 2.8-2.6s2.81.89 2.81 2.6v5.05Zm41.35 50.89h-9.11v-9.1h9.11v9.1Zm0-12.26h-9.11v-9.1h9.11v9.1Zm0-12.26h-9.11v-9.1h9.11v9.1Zm0-12.26h-9.11v-9.1h9.11v9.1Zm11.82 36.78h-9.11v-9.1h9.11v9.1Zm0-12.26h-9.11v-9.1h9.11v9.1Zm0-12.26h-9.11v-9.1h9.11v9.1Zm0-12.26h-9.11v-9.1h9.11v9.1Zm25.38 40.99h-8.61v-8.6h8.61v8.6Zm0-12.61h-8.61v-8.61h8.61v8.61Zm0-12.61h-8.61v-8.61h8.61v8.61Zm12.49 25.22h-8.6v-8.6h8.6v8.6Zm0-12.61h-8.6v-8.61h8.6v8.61Zm0-12.61h-8.6v-8.61h8.6v8.61ZM1266.6 158h-6.94v-6.94h6.94V158Zm0-9.35h-6.94v-6.94h6.94v6.94Zm0-9.35h-6.94v-6.94h6.94v6.94Zm0-9.35h-6.94v-6.94h6.94v6.94Zm9.02 28.05h-6.94v-6.94h6.94V158Zm0-9.35h-6.94v-6.94h6.94v6.94Zm0-9.35h-6.94v-6.94h6.94v6.94Zm0-9.35h-6.94v-6.94h6.94v6.94Zm25.52 21.78h-9.49v-9.5h9.49v9.5Zm0-12.79h-9.49v-9.49h9.49v9.49Zm0-12.78h-9.49v-9.5h9.49v9.5Zm0-12.79h-9.49v-9.49h9.49v9.49Zm12.33 38.36h-9.5v-9.5h9.5v9.5Zm0-12.79h-9.5v-9.49h9.5v9.49Zm0-12.78h-9.5v-9.5h9.5v9.5Zm0-12.79h-9.5v-9.49h9.5v9.49Zm12.32 38.36h-9.49v-9.5h9.49v9.5Zm0-12.79h-9.49v-9.49h9.49v9.49Zm0-12.78h-9.49v-9.5h9.49v9.5Zm0-12.79h-9.49v-9.49h9.49v9.49Zm25.99 39.8h-8.85v-8.85h8.85v8.85Zm0-12.98h-8.85v-8.84h8.85v8.84Zm0-12.97h-8.85v-8.85h8.85v8.85Zm12.85 25.95h-8.85v-8.85h8.85v8.85Zm0-12.98h-8.85v-8.84h8.85v8.84Zm0-12.97h-8.85v-8.85h8.85v8.85Z"/><g clip-path="url(#b)"><path fill="#DEC74C" d="M925.63 136.27c-7.41 0-13.42 3.92-13.42 8.75s6.01 8.75 13.42 8.75 13.42-3.92 13.42-8.75-6.01-8.75-13.42-8.75Zm0 .73c3.9 0 7.16 2.77 7.91 6.45-.48.37-6.79.77-7.72.77h-.44c-.9 0-6.89-.38-7.67-.74.74-3.7 4-6.48 7.92-6.48Zm0 16.15a8.07 8.07 0 0 1-7.95-6.67c.59-.37 6.78-.76 7.7-.76h.44c.96 0 7.71.43 7.75.81-.69 3.77-3.98 6.62-7.94 6.62Z"/></g></g><defs><clipPath id="a"><path fill="#fff" d="M0 0h1924v169H0z"/></clipPath><clipPath id="b"><path fill="#fff" d="M912 136h28v18h-28z"/></clipPath></defs></svg>