<svg xmlns="http://www.w3.org/2000/svg" fill="none" viewBox="0 0 201 44">
  <path fill="#FFFFFF" d="M65.54 21.505c0 11.88-14.672 21.51-32.77 21.51C14.67 43.014 0 33.384 0 21.504 0 9.626 14.671 0 32.77 0c18.098 0 32.77 9.626 32.77 21.505ZM32.77 1.787a19.63 19.63 0 0 0-10.96 3.347 19.83 19.83 0 0 0-7.264 8.914 19.982 19.982 0 0 0-1.12 11.475 19.9 19.9 0 0 0 5.402 10.168 19.684 19.684 0 0 0 10.103 5.43 19.6 19.6 0 0 0 11.398-1.136 19.753 19.753 0 0 0 8.848-7.32 19.953 19.953 0 0 0 3.317-11.037 19.925 19.925 0 0 0-5.783-14.03A19.657 19.657 0 0 0 32.77 1.786Z"/>
  <path fill="#FFFFFF" d="M33.236 19.533c2.353 0 18.871-1.055 18.936-1.99l.184-1.872h1.859a89.767 89.767 0 0 0-.188 5.656c0 1.926.062 3.743.188 5.776h-1.859l-.184-1.871c-.065-.94-16.583-1.99-18.936-1.99h-1.078c-2.352 0-18.871 1.05-18.932 1.99l-.188 1.871h-1.855c.123-2.03.184-3.85.184-5.776 0-1.794-.061-3.63-.184-5.656h1.855l.188 1.871c.06.936 16.58 1.991 18.932 1.991h1.078Z"/>
  <path fill="#FFFFFF" d="M71.878 6.753c-.765-.714-1.147-1.136-1.147-1.267 0-.223.199-.339.596-.339l16.35-.023c.712 0 1.175.243 1.397.732l8.414 20.866c.049.139.143.257.268.335.13 0 .222-.135.264-.385l5.308-20.7c.131-.582.551-.875 1.259-.875h5.316c.578 0 .865.223.868.67a.552.552 0 0 1-.069.197l-8.138 31.039c-.134.535-.555.804-1.263.804H88.607c-.711 0-1.147-.242-1.33-.735l-8.472-20.835a.413.413 0 0 0-.268-.27c-.09 0-.177.129-.264.385l-5.22 20.697c-.177.535-.597.8-1.263.8h-5.316c-.578 0-.865-.2-.865-.604v-.196L73.01 8.94v-.335c0-.537-.382-1.16-1.147-1.871M127.921 16.94l13.768-.022a6.808 6.808 0 0 1 4.288 1.301 4.088 4.088 0 0 1 1.698 3.377c.004.432-.062.86-.195 1.27l-2.314 8.915c-.438 1.65-1.522 3.062-3.251 4.236a10.033 10.033 0 0 1-5.714 1.748l-28.517.034c-.313 0-.466-.065-.466-.196s.107-.224.332-.385c2.387-1.556 3.936-2.335 4.647-2.338l16.351-.023c.707 0 1.128-.292 1.262-.87 1.275-4.903 1.912-7.375 1.912-7.416 0-.447-.267-.67-.799-.67l-13.769.023a6.85 6.85 0 0 1-4.264-1.317 4.073 4.073 0 0 1-1.266-1.471 4.108 4.108 0 0 1-.444-1.894c.001-.41.068-.817.199-1.205l2.295-8.98c.443-1.607 1.527-3.003 3.251-4.19a9.923 9.923 0 0 1 5.729-1.797l28.513-.043c.31 0 .467.066.467.2 0 .135-.111.27-.333.386-2.389 1.61-3.94 2.415-4.651 2.418l-16.347.023c-.711 0-1.147.27-1.262.8-1.275 4.896-1.912 7.364-1.912 7.405 0 .443.264.666.795.666M192.715 10.916l-3.106 11.91c-.351 1.34-1.303 2.557-2.853 3.65a12.3 12.3 0 0 1-4.972 2.114c.043.224.666 1.683 1.867 4.378 1.201 2.696 1.798 4.088 1.793 4.178 0 .354-.267.535-.799.535h-12.702c-.711 0-1.147-.242-1.335-.731l-2.604-7.393a1.195 1.195 0 0 0-1.197-.732 1.143 1.143 0 0 0-1.198.805l-1.851 7.293c-.176.527-.596.793-1.262.793h-12.679c-.573 0-.86-.2-.864-.6v-.2l7.405-28.11v-.335c0-.535-.383-1.155-1.148-1.871-.765-.716-1.128-1.136-1.128-1.267 0-.223.195-.335.597-.335l32.165-.05a6.71 6.71 0 0 1 4.291 1.332 4.143 4.143 0 0 1 1.699 3.404c0 .405-.044.81-.13 1.205l.011.027Zm-19.716 14.906c.707 0 1.128-.274 1.258-.82l4.23-16.204a.26.26 0 0 0 .069-.2c0-.385-.291-.6-.868-.6h-5.328c-.709 0-1.13.265-1.262.797l-4.23 16.214a.558.558 0 0 1-.054.204c0 .412.291.616.868.616l5.317-.007ZM197.114 5.094a3.09 3.09 0 0 1 1.487.385c.484.256.883.648 1.148 1.128a3.073 3.073 0 0 1 0 3.039c-.26.475-.649.866-1.121 1.128a3.043 3.043 0 0 1-3.014 0 2.838 2.838 0 0 1-1.124-1.128 3.043 3.043 0 0 1 0-3.039c.266-.48.665-.871 1.147-1.128a3.112 3.112 0 0 1 1.492-.385h-.015Zm.015.505a2.582 2.582 0 0 0-1.247.33 2.366 2.366 0 0 0-.945.94 2.584 2.584 0 0 0-.34 1.271c0 .442.116.877.337 1.26.216.396.541.723.937.939a2.499 2.499 0 0 0 2.512 0c.396-.216.721-.543.937-.94a2.539 2.539 0 0 0 0-2.53 2.3 2.3 0 0 0-.944-.94 2.58 2.58 0 0 0-1.239-.33h-.008Zm-1.327 4.235V6.546h1.128c.281-.013.562.018.834.092a.805.805 0 0 1 .413.316c.099.14.153.306.153.478a.888.888 0 0 1-.256.623 1.04 1.04 0 0 1-.685.3c.103.04.198.099.279.174.184.197.345.414.482.647l.383.639h-.647l-.302-.508a2.875 2.875 0 0 0-.551-.77.664.664 0 0 0-.424-.112h-.31V9.81l-.497.023Zm.524-1.844h.65c.22.023.442-.024.635-.135a.443.443 0 0 0 .168-.362.44.44 0 0 0-.08-.258.461.461 0 0 0-.226-.17 1.682 1.682 0 0 0-.539-.057h-.608v.982Z"/>
</svg>
